<?xml version="1.0" ?><svg version="1.1" viewBox="0 0 100 100" xmlns="http://www.w3.org/2000/svg" xmlns:xlink="http://www.w3.org/1999/xlink"><title/><desc/><g fill="none" fill-rule="evenodd" id="pause-line" stroke="none" stroke-width="1"><path d="M50.5,9 C73.4198171,9 92,27.5801829 92,50.5 C92,73.4198171 73.4198171,92 50.5,92 C27.5801829,92 9,73.4198171 9,50.5 C9,27.5801829 27.5801829,9 50.5,9 Z M50.5,14 C30.3416066,14 14,30.3416066 14,50.5 C14,70.6583934 30.3416066,87 50.5,87 C70.6583934,87 87,70.6583934 87,50.5 C87,30.3416066 70.6583934,14 50.5,14 Z M63,34 L63,67 L58,67 L58,34 L63,34 Z M43,34 L43,67 L38,67 L38,34 L43,34 Z" fill="currentColor" fill-rule="nonzero" id="Combined-Shape"/></g></svg>