<?xml version="1.0" ?><svg enable-background="new 0 0 32 32" version="1.1" viewBox="0 0 32 32" xml:space="preserve" xmlns="http://www.w3.org/2000/svg" xmlns:xlink="http://www.w3.org/1999/xlink"><g id="Layer_1"/><g id="Layer_2"><path d="M8,27c0,1.654-1.346,3-3,3s-3-1.346-3-3s1.346-3,3-3S8,25.346,8,27z M29.054,29.999c0.552-0.03,0.975-0.501,0.945-1.052   C29.213,14.371,17.63,2.787,3.054,2.001C2.509,1.966,2.031,2.395,2.001,2.946C1.972,3.498,2.395,3.969,2.946,3.999   C16.5,4.729,27.271,15.5,28.001,29.054C28.03,29.587,28.472,30,28.999,30C29.018,30,29.035,30,29.054,29.999z M22.018,29.998   c0.551-0.04,0.965-0.519,0.925-1.07C22.177,18.367,13.635,9.825,3.072,9.057C2.524,9.023,2.043,9.432,2.003,9.982   s0.374,1.03,0.925,1.07c9.578,0.696,17.325,8.443,18.021,18.02C20.986,29.599,21.425,30,21.944,30   C21.969,30,21.993,29.999,22.018,29.998z M15.028,29.994c0.549-0.061,0.944-0.555,0.884-1.104   C15.173,22.211,9.789,16.828,3.11,16.088c-0.563-0.057-1.044,0.336-1.104,0.884c-0.061,0.549,0.335,1.043,0.884,1.104   c5.757,0.637,10.397,5.277,11.034,11.033c0.057,0.512,0.49,0.89,0.993,0.89C14.953,30,14.99,29.998,15.028,29.994z" fill="currentColor" fill-rule="nonzero" id="Combined-Shape"/></g><g id="Layer_3"/><g id="Layer_4"/></svg>