<?xml version="1.0" ?><svg version="1.1" viewBox="0 0 100 100" xmlns="http://www.w3.org/2000/svg" xmlns:xlink="http://www.w3.org/1999/xlink"><title/><desc/><g fill="none" fill-rule="evenodd" id="enable-shuffle-line" stroke="none" stroke-width="1"><path d="M47.4606056,64.5326001 L47.6954614,64.9329659 C52.2911311,72.604682 60.073083,76.2983309 69.1557051,77.0320187 C69.8293567,77.0864358 70.4888718,77.1211577 71.1253125,77.1381236 L71.1230623,67 L91.1230623,79.5 L71.1230623,92 L71.1232305,82.1396258 C70.3566113,82.121689 69.5630697,82.0812121 68.7531199,82.0157849 C58.0267547,81.1493166 48.6353589,76.6171075 43.1248632,67.0228487 L43.1248632,67.0228487 L47.4606056,64.5326001 Z M71.1230623,9 L91.1230623,21.5 L71.1230623,34 L71.1253125,24.1610763 C70.4888718,24.1780423 69.8293567,24.2127641 69.1557051,24.2671812 C57.2537856,25.22861 48.0023081,31.0166302 44.6433978,43.7596424 L44.5286218,44.2069905 C41.5113511,56.294152 35.4142132,65.9537602 27.448652,72.748984 C21.1838836,78.0933034 14.0301539,81.2614036 9.2929019,81.1466127 L9,81.1351537 L9.27149875,76.1425303 C12.5435937,76.3204667 18.7001772,73.6399205 24.2036236,68.9450662 C31.2441006,62.939009 36.6943416,54.4072316 39.5084906,43.6569685 L39.6774828,42.9960197 C41.7910057,34.5292646 46.2685877,28.400928 52.545313,24.4226782 C57.3884839,21.3530292 62.9825611,19.7495568 68.7531199,19.2834151 C69.5630697,19.2179879 70.3566113,19.1775109 71.1232305,19.1595741 L71.1230623,9 Z M9.30422648,20.1520456 C15.6503974,19.9944931 25.6102997,25.4327809 32.9841723,34.1057799 L32.9841723,34.1057799 L29.1748709,37.344487 C22.6110519,29.6242564 13.8524911,24.9075554 9.27149875,25.1566696 L9.27149875,25.1566696 L9,20.1640462 Z" fill="currentColor" id="Combined-Shape"/></g></svg>