<?xml version="1.0" ?><svg version="1.1" viewBox="0 0 100 100" xmlns="http://www.w3.org/2000/svg" xmlns:xlink="http://www.w3.org/1999/xlink"><title/><desc/><g fill="none" fill-rule="evenodd" id="sound-on-fill" stroke="none" stroke-width="1"><path d="M51,9 L51,92 L28.6107939,71.751144 L9,71.6415094 L9,29.3584906 L28.5945594,29.2567253 L51,9 Z M77.0255873,9 L78.2866147,10.9561374 C86.7479751,24.0816131 91,37.2733096 91,50.5 C91,63.498644 86.8933327,76.4634904 78.7205172,89.3648998 L78.2866147,90.0438626 L77.0255873,92 L73,89.5489362 L74.2610274,87.5927988 C82.267652,75.1727207 86.2496197,62.8188634 86.2496197,50.5 C86.2496197,38.4011163 82.4085954,26.2684773 74.6861038,14.0724994 L74.2610274,13.4072012 L73,11.4510638 L77.0255873,9 Z M64.0006501,20 L65.2211874,21.9762412 C71.0608202,31.431522 74,40.9495077 74,50.5 C74,59.8472904 71.1845611,69.1634426 65.5899905,78.4201453 L65.2211874,79.0237588 L64.0006501,81 L60,78.5883158 L61.2205373,76.6120745 C66.6287004,67.8554108 69.3134184,59.1614521 69.3134184,50.5 C69.3134184,42.0310246 66.7466954,33.5309713 61.5770472,24.9716105 L61.2205373,24.3879255 L60,22.4116842 L64.0006501,20 Z" fill="currentColor" id="Combined-Shape"/></g></svg>